<svg width="524" height="262" viewBox="0 0 524 262" fill="none" xmlns="http://www.w3.org/2000/svg">
<rect x="0.75" width="522.5" height="261.25" rx="22.5" fill="white"/>
<g filter="url(#filter0_d_240_14376)">
<rect x="18" y="16.7542" width="487.5" height="228.5" rx="15" fill="white" shape-rendering="crispEdges"/>
<path d="M148.701 245.018C147.277 245.018 146.045 244.738 145.005 244.178C143.965 243.618 143.165 242.834 142.605 241.826C142.045 240.818 141.765 239.658 141.765 238.346C141.765 237.034 142.069 235.882 142.677 234.89C143.285 233.882 144.133 233.09 145.221 232.514C146.325 231.938 147.597 231.65 149.037 231.65C149.885 231.65 150.661 231.738 151.365 231.914C152.069 232.074 152.685 232.298 153.213 232.586C153.757 232.874 154.197 233.202 154.533 233.57C154.885 233.938 155.109 234.322 155.205 234.722L154.125 235.058V226.994H159.021V244.754H154.629L154.245 241.442L155.229 241.85C155.149 242.25 154.925 242.642 154.557 243.026C154.205 243.41 153.733 243.754 153.141 244.058C152.549 244.346 151.877 244.578 151.125 244.754C150.373 244.93 149.565 245.018 148.701 245.018ZM150.381 240.914C151.197 240.914 151.893 240.81 152.469 240.602C153.045 240.394 153.485 240.098 153.789 239.714C154.093 239.33 154.245 238.874 154.245 238.346C154.245 237.818 154.093 237.37 153.789 237.002C153.485 236.618 153.045 236.322 152.469 236.114C151.893 235.906 151.197 235.802 150.381 235.802C149.597 235.802 148.917 235.906 148.341 236.114C147.765 236.322 147.317 236.618 146.997 237.002C146.693 237.37 146.541 237.818 146.541 238.346C146.541 238.874 146.693 239.33 146.997 239.714C147.317 240.098 147.765 240.394 148.341 240.602C148.917 240.81 149.597 240.914 150.381 240.914ZM169.902 244.754V231.914H174.414L174.606 234.89L173.574 234.218C173.958 233.882 174.358 233.562 174.774 233.258C175.206 232.938 175.662 232.658 176.142 232.418C176.638 232.178 177.19 231.994 177.798 231.866C178.422 231.722 179.118 231.65 179.886 231.65C180.606 231.65 181.286 231.746 181.926 231.938C182.566 232.13 183.134 232.474 183.63 232.97C184.142 233.466 184.542 234.162 184.83 235.058L183.606 234.938L183.846 234.602C184.214 234.218 184.614 233.85 185.046 233.498C185.494 233.146 185.982 232.834 186.51 232.562C187.054 232.274 187.654 232.05 188.31 231.89C188.966 231.73 189.686 231.65 190.47 231.65C191.91 231.65 193.062 231.906 193.926 232.418C194.79 232.93 195.414 233.602 195.798 234.434C196.182 235.25 196.374 236.13 196.374 237.074V244.754H191.502V237.722C191.502 237.37 191.422 237.034 191.262 236.714C191.102 236.394 190.854 236.13 190.518 235.922C190.182 235.714 189.75 235.61 189.222 235.61C188.694 235.61 188.206 235.69 187.758 235.85C187.326 235.994 186.942 236.202 186.606 236.474C186.286 236.746 186.03 237.066 185.838 237.434C185.662 237.786 185.574 238.162 185.574 238.562V244.754H180.702V237.722C180.702 237.338 180.606 236.986 180.414 236.666C180.222 236.346 179.918 236.09 179.502 235.898C179.086 235.706 178.526 235.61 177.822 235.61C177.358 235.61 176.934 235.698 176.55 235.874C176.182 236.05 175.862 236.274 175.59 236.546C175.334 236.818 175.134 237.098 174.99 237.386C174.846 237.658 174.774 237.89 174.774 238.082V244.754H169.902ZM212.535 244.754L205.383 231.914H211.047L215.631 241.538H214.095L218.655 231.914H224.319L216.951 244.754H212.535ZM233.934 245.018C232.862 245.018 232.054 244.802 231.51 244.37C230.982 243.938 230.718 243.354 230.718 242.618C230.718 241.994 230.99 241.442 231.534 240.962C232.078 240.466 232.878 240.218 233.934 240.218C235.006 240.218 235.806 240.434 236.334 240.866C236.878 241.298 237.15 241.882 237.15 242.618C237.15 243.242 236.878 243.802 236.334 244.298C235.79 244.778 234.99 245.018 233.934 245.018ZM255.102 244.994C253.342 244.994 251.79 244.706 250.446 244.13C249.118 243.554 248.078 242.762 247.326 241.754C246.59 240.746 246.222 239.602 246.222 238.322C246.222 237.026 246.59 235.882 247.326 234.89C248.062 233.882 249.062 233.09 250.326 232.514C251.606 231.938 253.046 231.65 254.646 231.65C256.15 231.65 257.526 231.818 258.774 232.154C260.038 232.474 261.158 232.962 262.134 233.618L259.47 237.074C259.118 236.834 258.71 236.618 258.246 236.426C257.782 236.234 257.294 236.082 256.782 235.97C256.27 235.858 255.734 235.802 255.174 235.802C254.326 235.802 253.606 235.906 253.014 236.114C252.438 236.322 251.998 236.61 251.694 236.978C251.406 237.346 251.262 237.786 251.262 238.298C251.262 238.794 251.406 239.234 251.694 239.618C251.998 240.002 252.438 240.298 253.014 240.506C253.59 240.714 254.286 240.818 255.102 240.818C255.854 240.818 256.502 240.77 257.046 240.674C257.606 240.578 258.086 240.466 258.486 240.338C258.886 240.21 259.23 240.09 259.518 239.978L262.11 243.362C261.134 243.842 260.07 244.234 258.918 244.538C257.782 244.842 256.51 244.994 255.102 244.994ZM276.954 244.97C275.418 244.97 274.098 244.69 272.994 244.13C271.89 243.57 271.042 242.794 270.45 241.802C269.874 240.81 269.586 239.658 269.586 238.346C269.586 237.034 269.882 235.874 270.474 234.866C271.082 233.858 271.93 233.074 273.018 232.514C274.122 231.938 275.426 231.65 276.93 231.65C277.794 231.65 278.586 231.746 279.306 231.938C280.026 232.114 280.658 232.354 281.202 232.658C281.762 232.946 282.218 233.258 282.57 233.594C282.922 233.93 283.154 234.242 283.266 234.53L282.114 234.746V231.914H286.866V244.754H281.994V241.13L282.978 241.586C282.914 241.986 282.714 242.386 282.378 242.786C282.042 243.186 281.61 243.554 281.082 243.89C280.554 244.21 279.938 244.474 279.234 244.682C278.53 244.874 277.77 244.97 276.954 244.97ZM278.25 241.01C279.066 241.01 279.762 240.906 280.338 240.698C280.914 240.474 281.354 240.162 281.658 239.762C281.962 239.362 282.114 238.89 282.114 238.346C282.114 237.786 281.962 237.306 281.658 236.906C281.354 236.506 280.914 236.194 280.338 235.97C279.762 235.746 279.066 235.634 278.25 235.634C277.45 235.634 276.754 235.746 276.162 235.97C275.586 236.194 275.138 236.506 274.818 236.906C274.514 237.306 274.362 237.786 274.362 238.346C274.362 238.89 274.514 239.362 274.818 239.762C275.138 240.162 275.586 240.474 276.162 240.698C276.754 240.906 277.45 241.01 278.25 241.01ZM300.801 245.018C299.729 245.018 298.921 244.802 298.377 244.37C297.849 243.938 297.585 243.354 297.585 242.618C297.585 241.994 297.857 241.442 298.401 240.962C298.945 240.466 299.745 240.218 300.801 240.218C301.873 240.218 302.673 240.434 303.201 240.866C303.745 241.298 304.017 241.882 304.017 242.618C304.017 243.242 303.745 243.802 303.201 244.298C302.657 244.778 301.857 245.018 300.801 245.018ZM322.473 250.274C320.761 250.274 319.265 250.098 317.985 249.746C316.721 249.41 315.689 249.01 314.889 248.546L316.497 245.138C316.881 245.282 317.305 245.45 317.769 245.642C318.249 245.834 318.801 245.994 319.425 246.122C320.049 246.266 320.777 246.338 321.609 246.338C322.409 246.338 323.105 246.194 323.697 245.906C324.289 245.618 324.745 245.194 325.065 244.634C325.385 244.058 325.545 243.338 325.545 242.474V241.514L326.625 241.61C326.465 242.122 326.073 242.594 325.449 243.026C324.825 243.442 324.041 243.778 323.097 244.034C322.153 244.274 321.113 244.394 319.977 244.394C318.601 244.394 317.393 244.146 316.353 243.65C315.313 243.138 314.505 242.418 313.929 241.49C313.369 240.562 313.089 239.474 313.089 238.226C313.089 236.914 313.393 235.77 314.001 234.794C314.609 233.802 315.457 233.034 316.545 232.49C317.633 231.93 318.897 231.65 320.337 231.65C320.705 231.65 321.153 231.682 321.681 231.746C322.209 231.81 322.753 231.914 323.313 232.058C323.889 232.202 324.425 232.386 324.921 232.61C325.417 232.834 325.825 233.106 326.145 233.426C326.465 233.746 326.633 234.114 326.649 234.53L325.665 234.746L325.929 231.914H330.441V242.546C330.441 243.858 330.217 244.994 329.769 245.954C329.337 246.93 328.745 247.738 327.993 248.378C327.257 249.018 326.409 249.49 325.449 249.794C324.505 250.114 323.513 250.274 322.473 250.274ZM321.921 240.914C322.705 240.914 323.369 240.81 323.913 240.602C324.473 240.394 324.905 240.09 325.209 239.69C325.513 239.29 325.665 238.818 325.665 238.274C325.665 237.714 325.513 237.242 325.209 236.858C324.921 236.458 324.497 236.154 323.937 235.946C323.393 235.722 322.721 235.61 321.921 235.61C321.089 235.61 320.369 235.722 319.761 235.946C319.153 236.154 318.681 236.458 318.345 236.858C318.025 237.242 317.865 237.714 317.865 238.274C317.865 238.818 318.025 239.29 318.345 239.69C318.681 240.09 319.153 240.394 319.761 240.602C320.369 240.81 321.089 240.914 321.921 240.914ZM349.334 244.994C347.542 244.994 345.95 244.714 344.558 244.154C343.182 243.578 342.11 242.786 341.342 241.778C340.574 240.77 340.19 239.618 340.19 238.322C340.19 237.01 340.574 235.858 341.342 234.866C342.11 233.858 343.182 233.074 344.558 232.514C345.95 231.938 347.542 231.65 349.334 231.65C351.142 231.65 352.726 231.938 354.086 232.514C355.446 233.074 356.51 233.858 357.278 234.866C358.046 235.858 358.43 237.01 358.43 238.322C358.43 239.618 358.046 240.77 357.278 241.778C356.51 242.786 355.446 243.578 354.086 244.154C352.726 244.714 351.142 244.994 349.334 244.994ZM349.334 240.914C350.102 240.914 350.798 240.81 351.422 240.602C352.062 240.378 352.574 240.074 352.958 239.69C353.342 239.29 353.526 238.834 353.51 238.322C353.526 237.794 353.342 237.338 352.958 236.954C352.574 236.554 352.062 236.25 351.422 236.042C350.798 235.818 350.102 235.706 349.334 235.706C348.566 235.706 347.854 235.818 347.198 236.042C346.558 236.25 346.046 236.546 345.662 236.93C345.294 237.314 345.11 237.778 345.11 238.322C345.11 238.834 345.294 239.29 345.662 239.69C346.046 240.074 346.558 240.378 347.198 240.602C347.854 240.81 348.566 240.914 349.334 240.914ZM372.692 244.754L365.54 231.914H371.204L375.788 241.538H374.252L378.812 231.914H384.476L377.108 244.754H372.692Z" fill="#E21212"/>
<mask id="path-4-inside-1_240_14376" fill="white">
<rect x="26" y="22.7542" width="70.5" height="40.5" rx="0.8"/>
</mask>
<rect x="26" y="22.7542" width="70.5" height="40.5" rx="0.8" stroke="#E21212" stroke-width="2" mask="url(#path-4-inside-1_240_14376)"/>
<path d="M48.5199 47.7542V39.3541H49.7919L53.6199 44.0942H53.1639L56.9919 39.3541H58.2639V47.7542H56.9679V44.1902C56.9679 43.5262 56.9839 42.9022 57.0159 42.3182C57.0479 41.7342 57.1119 41.1381 57.2079 40.5301L57.3399 41.0221L53.7879 45.3422H52.9959L49.4439 41.0221L49.5759 40.5301C49.6719 41.1381 49.7359 41.7342 49.7679 42.3182C49.7999 42.9022 49.8159 43.5262 49.8159 44.1902V47.7542H48.5199ZM69.0573 47.8742C68.3133 47.8742 67.6333 47.7662 67.0173 47.5502C66.4013 47.3262 65.8653 47.0182 65.4093 46.6262C64.9533 46.2262 64.6013 45.7662 64.3533 45.2462C64.1053 44.7182 63.9813 44.1542 63.9813 43.5542C63.9813 42.9542 64.1053 42.3942 64.3533 41.8742C64.6013 41.3461 64.9533 40.8861 65.4093 40.4942C65.8653 40.0942 66.4013 39.7861 67.0173 39.5701C67.6333 39.3461 68.3133 39.2341 69.0573 39.2341C69.7933 39.2341 70.4693 39.3461 71.0853 39.5701C71.7013 39.7861 72.2373 40.0942 72.6933 40.4942C73.1493 40.8861 73.5013 41.3461 73.7493 41.8742C74.0053 42.3942 74.1333 42.9542 74.1333 43.5542C74.1333 44.1542 74.0053 44.7182 73.7493 45.2462C73.5013 45.7662 73.1493 46.2262 72.6933 46.6262C72.2373 47.0182 71.7013 47.3262 71.0853 47.5502C70.4693 47.7662 69.7933 47.8742 69.0573 47.8742ZM69.0573 46.6142C69.6093 46.6142 70.1133 46.5382 70.5693 46.3862C71.0253 46.2262 71.4213 46.0102 71.7573 45.7382C72.0933 45.4582 72.3533 45.1342 72.5373 44.7662C72.7213 44.3902 72.8133 43.9862 72.8133 43.5542C72.8133 43.1222 72.7213 42.7222 72.5373 42.3542C72.3533 41.9782 72.0933 41.6542 71.7573 41.3822C71.4213 41.1021 71.0253 40.8861 70.5693 40.7341C70.1133 40.5742 69.6093 40.4942 69.0573 40.4942C68.5053 40.4942 67.9973 40.5742 67.5333 40.7341C67.0773 40.8861 66.6813 41.1021 66.3453 41.3822C66.0093 41.6542 65.7493 41.9782 65.5653 42.3542C65.3893 42.7222 65.3013 43.1222 65.3013 43.5542C65.3013 43.9862 65.3893 44.3902 65.5653 44.7662C65.7493 45.1342 66.0093 45.4582 66.3453 45.7382C66.6813 46.0102 67.0773 46.2262 67.5333 46.3862C67.9973 46.5382 68.5053 46.6142 69.0573 46.6142Z" fill="#E21212"/>
<mask id="path-6-inside-2_240_14376" fill="white">
<rect x="427" y="22.7542" width="70.5" height="40.5" rx="0.8"/>
</mask>
<rect x="427" y="22.7542" width="70.5" height="40.5" rx="0.8" stroke="#E21212" stroke-width="2" mask="url(#path-6-inside-2_240_14376)"/>
<path d="M454.408 48.7542V44.9982L454.648 45.9222L450.136 40.3541H451.936L455.212 44.5902H454.936L458.128 40.3541H459.736L455.644 45.5982L455.704 44.9022V48.7542H454.408ZM464.879 48.7542V40.3541H469.787C470.283 40.3541 470.735 40.4701 471.143 40.7022C471.559 40.9262 471.891 41.2342 472.139 41.6261C472.387 42.0182 472.511 42.4542 472.511 42.9342C472.511 43.4382 472.375 43.8982 472.103 44.3142C471.831 44.7222 471.471 45.0502 471.023 45.2982C470.575 45.5382 470.083 45.6582 469.547 45.6582H466.175V48.7542H464.879ZM471.383 48.7542L468.527 44.9622L469.907 44.6622L473.003 48.7662L471.383 48.7542ZM466.175 44.4102H469.427C469.731 44.4102 470.011 44.3422 470.267 44.2062C470.531 44.0702 470.739 43.8902 470.891 43.6662C471.051 43.4422 471.131 43.1982 471.131 42.9342C471.131 42.6862 471.051 42.4622 470.891 42.2622C470.739 42.0622 470.531 41.9021 470.267 41.7822C470.011 41.6622 469.731 41.6022 469.427 41.6022H466.175V44.4102Z" fill="#E21212"/>
<rect x="451" y="52.7542" width="21" height="6" fill="#E21212"/>
<path fill-rule="evenodd" clip-rule="evenodd" d="M154.738 53.7938C156.957 55.2976 150.596 62.1098 142.977 69.1175C138.954 72.8168 121.334 87.9601 117.488 72.2604C113.716 56.8916 132.696 28.9811 144.117 24.1389C155.537 19.2967 157.224 28.6503 151.824 39.3122C150.507 41.9138 143.88 51.508 141.809 50.0042C136.098 45.8537 154.576 34.4098 150.877 27.6427C147.563 21.6276 134.797 40.0491 131.32 45.7786C128.465 50.5005 118.006 72.8469 125.61 73.5236C136.098 74.3657 151.839 50.9967 154.738 53.7938Z" fill="#E21212"/>
<path fill-rule="evenodd" clip-rule="evenodd" d="M235.497 64.0347C247.968 61.9143 262.288 40.7559 269.034 52.275C269.937 53.7788 269.981 56.3954 270.913 56.1397C275.647 54.8164 281.18 45.6131 282.659 46.35C284.494 47.3275 284.139 47.8538 288.148 52.0795C289.997 54.0194 280.233 62.7564 282.911 66.3806C286.52 71.283 308.356 39.0716 306.581 61.1774C313.519 51.1922 326.197 45.3725 325.96 64.4708C325.96 65.2527 325.96 67.2829 327.351 66.531C333.091 63.5234 345.207 46.4553 349.956 49.9892C352.678 51.9742 349.231 57.5082 349.038 62.6662C348.817 68.4408 349.038 69.4784 350.296 71.4333C351.021 72.4108 353.136 73.8695 352.515 74.4409C342.677 76.6214 345.873 60.9068 345.473 55.4329C345.118 50.696 327.218 74.2154 322.188 69.9145C320.146 68.1851 321.7 57.5683 319.348 55.854C314.406 52.2599 304.199 76.1402 297.897 71.0875C295.722 67.4633 301.654 62.606 301.358 59.3278C300.5 54.9668 280.115 80.6817 278.088 67.8994C277.422 63.6737 281.816 59.418 282.526 56.636C282.866 55.2826 281.461 52.1246 280.603 52.3953C277.984 54.3502 274.049 58.7112 271.298 61.1774C269.36 62.9068 270.573 61.8993 269.227 65.0873C265.75 73.283 260.247 76.8169 253.945 73.4334C250.986 71.8093 250.054 66.14 251.252 59.809C249.285 60.9368 239.417 66.8317 238.574 68.1851C237.731 69.5386 239.832 72.1552 239.787 75.9748C239.698 82.6066 230.674 92.3211 226.103 96.0054C214.446 105.419 225.363 74.065 227.346 67.5686C224.786 70.11 220.2 75.0876 216.073 74.9522C212.463 74.7267 212.463 71.1025 213.114 65.2978C213.987 58.8766 213.81 60.7865 214.002 58.4405C213.795 57.0721 213.129 57.6435 212.375 58.4405C208.794 62.2451 196.56 79.4937 189.341 72.892C186.87 70.6514 188.172 67.734 187.225 68.5912C182.462 72.892 169.946 82.366 171.071 67.749C168.112 71.1175 159.694 82.8923 153.318 79.5388C145.921 75.6289 150.936 64.2602 164.606 57.3127C166.068 56.4811 167.721 56.0571 169.397 56.0835C171.072 56.1099 172.711 56.5858 174.148 57.4631C175.095 57.7638 176.382 56.3051 178.586 57.1924C179.518 57.6134 173.881 69.4634 175.967 71.2078C178.068 72.6063 183.187 68.0498 186.027 63.8542C186.919 62.4688 187.584 60.9451 187.995 59.3428C190.277 51.6483 193.603 44.3145 197.877 37.5528C199.134 35.4324 208.232 22.0185 211.191 24.0186C216.265 27.6127 204.726 46.8462 201.191 52.3201C197.655 57.7939 193.232 62.6812 191.93 65.1024C189.859 68.9822 192.521 70.8318 192.521 70.8318C197.995 73.0123 212.315 52.3652 214.875 52.7862C216.103 52.9517 217.478 55.1322 217.745 56.3202C218.795 60.9368 216.014 68.7566 218.129 70.5461C219.52 71.1326 224.565 65.5685 227.346 62.6812C233.47 56.3653 235.63 47.8087 240.068 35.8986C241.548 32.1541 246.873 16.665 249.329 25.372C253.057 38.3949 235.497 52.9517 235.497 64.0347ZM195.258 49.8238C192.3 55.6435 189.222 64.3053 194.785 56.5307C197.329 52.9517 196.042 54.8615 199.223 50.0644C201.738 46.2598 208.365 32.6805 206.842 32.485C204.652 34.094 198.276 44.0191 195.258 49.8238ZM256.696 61.1774C253.442 67.9746 256.696 72.9221 260.602 70.8318C263.25 69.4183 265.587 65.0873 266.386 61.2827C268.457 51.2825 262.481 49.117 256.696 61.1774ZM155.818 74.065C157.401 78.7719 172.994 63.1925 168.511 60.6962C165.286 60.8015 154.738 71.6739 155.818 74.065ZM225.615 93.1783C228.796 91.8549 241.888 73.7793 233.13 70.3957C231.399 72.486 224.417 92.2459 225.615 93.1783Z" fill="#E21212"/>
<path fill-rule="evenodd" clip-rule="evenodd" d="M352.249 31.1165C357.56 25.6427 357.841 40.3649 352.249 36.9964C349.408 35.3121 350.799 32.6053 352.249 31.1165Z" fill="#E21212"/>
<path fill-rule="evenodd" clip-rule="evenodd" d="M218.1 36.9964C219.89 32.485 224.92 39.4626 222.73 41.7033C220.067 44.4101 216.606 40.7408 218.1 36.9964Z" fill="#E21212"/>
<path fill-rule="evenodd" clip-rule="evenodd" d="M416.779 71.5236C416.903 71.6412 416.98 71.8009 416.997 71.9727C417.013 72.1444 416.967 72.3163 416.867 72.4559C415.462 74.4409 409.545 75.2229 405.447 75.7944C390.653 77.8395 371.762 75.5237 376.688 56.8766C373.729 58.1999 362.649 75.1928 355.725 69.9145C350.163 65.6738 363.714 51.7787 368.152 48.9365C371.628 46.7109 376.54 45.0267 379.277 47.4327C380.223 48.2598 381.732 47.538 382.235 47.8688C384.114 48.9816 375.815 64.2903 382.457 69.1476C391.644 75.8846 410.994 68.2904 416.779 71.5236ZM359.187 65.5836C358.314 71.7943 375.46 56.7262 373.507 52.1697C371.037 51.1471 361.243 61.403 359.187 65.5836Z" fill="#E21212"/>
</g>
<defs>
<filter id="filter0_d_240_14376" x="14" y="15.7542" width="495.5" height="241.52" filterUnits="userSpaceOnUse" color-interpolation-filters="sRGB">
<feFlood flood-opacity="0" result="BackgroundImageFix"/>
<feColorMatrix in="SourceAlpha" type="matrix" values="0 0 0 0 0 0 0 0 0 0 0 0 0 0 0 0 0 0 127 0" result="hardAlpha"/>
<feOffset dy="3"/>
<feGaussianBlur stdDeviation="2"/>
<feComposite in2="hardAlpha" operator="out"/>
<feColorMatrix type="matrix" values="0 0 0 0 0 0 0 0 0 0 0 0 0 0 0 0 0 0 0.1 0"/>
<feBlend mode="normal" in2="BackgroundImageFix" result="effect1_dropShadow_240_14376"/>
<feBlend mode="normal" in="SourceGraphic" in2="effect1_dropShadow_240_14376" result="shape"/>
</filter>
</defs>
</svg>
